<svg width="100" height="100" viewBox="0 0 100 100" xmlns="http://www.w3.org/2000/svg">
  <defs>
    <filter id="parchment-texture" x="-50%" y="-50%" width="200%" height="200%">
      <feTurbulence type="fractalNoise" baseFrequency="0.1" numOctaves="3" result="noise"/>
      <feColorMatrix type="matrix" values="1 0 0 0 0
                                          0 1 0 0 0
                                          0 0 1 0 0
                                          0 0 0 0.5 0" result="noise-alpha"/>
      <feComposite in="SourceGraphic" in2="noise-alpha" operator="in" result="texture"/>
    </filter>
  </defs>

  <!-- Background circle -->
  <circle cx="50" cy="50" r="45" fill="#e8e0d0" filter="url(#parchment-texture)" stroke="#8B4513" stroke-width="1"/>
  
  <!-- Main directional points -->
  <g fill="#8B4513" text-anchor="middle" font-family="Georgia, serif" font-weight="bold">
    <text x="50" y="15" font-size="12">N</text>
    <text x="85" y="52" font-size="12">E</text>
    <text x="50" y="90" font-size="12">S</text>
    <text x="15" y="52" font-size="12">W</text>
  </g>

  <!-- Main compass lines -->
  <g stroke="#8B4513" stroke-width="1.5">
    <line x1="50" y1="20" x2="50" y2="35"/>
    <line x1="80" y1="50" x2="65" y2="50"/>
    <line x1="50" y1="80" x2="50" y2="65"/>
    <line x1="20" y1="50" x2="35" y2="50"/>
  </g>

  <!-- Secondary directional points -->
  <g fill="#8B4513" text-anchor="middle" font-family="Georgia, serif" font-size="8">
    <text x="75" y="25" font-size="8">NE</text>
    <text x="75" y="75" font-size="8">SE</text>
    <text x="25" y="75" font-size="8">SW</text>
    <text x="25" y="25" font-size="8">NW</text>
  </g>

  <!-- Secondary compass lines -->
  <g stroke="#8B4513" stroke-width="0.7">
    <line x1="65" y1="35" x2="60" y2="40"/>
    <line x1="65" y1="65" x2="60" y2="60"/>
    <line x1="35" y1="65" x2="40" y2="60"/>
    <line x1="35" y1="35" x2="40" y2="40"/>
  </g>

  <!-- Inner circle -->
  <circle cx="50" cy="50" r="15" fill="none" stroke="#8B4513" stroke-width="0.5"/>

  <!-- Compass needle -->
  <g>
    <path d="M50,25 L55,50 L50,75 L45,50 Z" fill="#ad3f3f" stroke="#8B4513" stroke-width="0.5"/>
    <path d="M45,50 L50,75 L55,50 Z" fill="#ffffff" stroke="#8B4513" stroke-width="0.5"/>
    <circle cx="50" cy="50" r="3" fill="#8B4513"/>
  </g>

  <!-- Decorative flourishes -->
  <g stroke="#8B4513" stroke-width="0.3" opacity="0.7" fill="none">
    <path d="M20,20 C30,15 40,15 50,20 C60,15 70,15 80,20"/>
    <path d="M20,80 C30,85 40,85 50,80 C60,85 70,85 80,80"/>
  </g>
</svg> 