<svg width="1000" height="1000" viewBox="0 0 1000 1000" xmlns="http://www.w3.org/2000/svg">
  <defs>
    <filter id="early-paper-texture" x="0%" y="0%" width="100%" height="100%">
      <feTurbulence type="fractalNoise" baseFrequency="0.05" numOctaves="4" result="noise"/>
      <feColorMatrix type="matrix" values="1 0 0 0 0
                                          0 1 0 0 0
                                          0 0 1 0 0
                                          0 0 0 0.2 0" result="noise-alpha"/>
      <feBlend in="SourceGraphic" in2="noise-alpha" mode="multiply" result="blend"/>
      <feColorMatrix in="blend" type="matrix" values="0.98 0 0 0 0.02
                                                     0 0.90 0 0 0.05
                                                     0 0 0.85 0 0.05
                                                     0 0 0 1 0" result="light-sepia"/>
    </filter>
  </defs>
  
  <rect width="100%" height="100%" fill="#f8f4f0" filter="url(#early-paper-texture)"/>
  
  <!-- Subtle aging marks -->
  <ellipse cx="300" cy="200" rx="120" ry="80" fill="#e0d8c0" opacity="0.07"/>
  <ellipse cx="700" cy="800" rx="150" ry="100" fill="#e0d8c0" opacity="0.07"/>
  
  <!-- Grid lines (like from early mapping paper) -->
  <g stroke="#000000" stroke-width="0.5" opacity="0.05">
    <!-- Horizontal lines -->
    <line x1="0" y1="100" x2="1000" y2="100" />
    <line x1="0" y1="200" x2="1000" y2="200" />
    <line x1="0" y1="300" x2="1000" y2="300" />
    <line x1="0" y1="400" x2="1000" y2="400" />
    <line x1="0" y1="500" x2="1000" y2="500" />
    <line x1="0" y1="600" x2="1000" y2="600" />
    <line x1="0" y1="700" x2="1000" y2="700" />
    <line x1="0" y1="800" x2="1000" y2="800" />
    <line x1="0" y1="900" x2="1000" y2="900" />
    
    <!-- Vertical lines -->
    <line x1="100" y1="0" x2="100" y2="1000" />
    <line x1="200" y1="0" x2="200" y2="1000" />
    <line x1="300" y1="0" x2="300" y2="1000" />
    <line x1="400" y1="0" x2="400" y2="1000" />
    <line x1="500" y1="0" x2="500" y2="1000" />
    <line x1="600" y1="0" x2="600" y2="1000" />
    <line x1="700" y1="0" x2="700" y2="1000" />
    <line x1="800" y1="0" x2="800" y2="1000" />
    <line x1="900" y1="0" x2="900" y2="1000" />
  </g>
  
  <!-- Simple folds -->
  <path d="M0,300 C200,310 400,300 600,320 C800,310 900,300 1000,300" 
        stroke="#000000" stroke-width="1" opacity="0.05" fill="none"/>
  <path d="M400,0 C410,200 400,400 420,600 C410,800 400,900 400,1000" 
        stroke="#000000" stroke-width="1" opacity="0.05" fill="none"/>
</svg> 