<svg width="1000" height="1000" viewBox="0 0 1000 1000" xmlns="http://www.w3.org/2000/svg">
  <defs>
    <filter id="modern-paper-texture" x="0%" y="0%" width="100%" height="100%">
      <feTurbulence type="fractalNoise" baseFrequency="0.08" numOctaves="3" result="noise"/>
      <feColorMatrix type="matrix" values="1 0 0 0 0
                                          0 1 0 0 0
                                          0 0 1 0 0
                                          0 0 0 0.1 0" result="noise-alpha"/>
      <feBlend in="SourceGraphic" in2="noise-alpha" mode="multiply" result="blend"/>
    </filter>
  </defs>
  
  <rect width="100%" height="100%" fill="#fafafa" filter="url(#modern-paper-texture)"/>
  
  <!-- Modern map elements -->
  <g opacity="0.03">
    <!-- Topographic contour lines -->
    <path d="M100,200 C200,210 300,190 400,200 C500,210 600,220 700,210 C800,200 900,190 1000,200" 
          stroke="#000000" stroke-width="0.5" fill="none"/>
    <path d="M100,220 C200,230 300,210 400,220 C500,230 600,240 700,230 C800,220 900,210 1000,220" 
          stroke="#000000" stroke-width="0.5" fill="none"/>
    <path d="M100,240 C200,250 300,230 400,240 C500,250 600,260 700,250 C800,240 900,230 1000,240" 
          stroke="#000000" stroke-width="0.5" fill="none"/>
    
    <!-- Grid coordinates -->
    <line x1="0" y1="500" x2="1000" y2="500" stroke="#000000" stroke-width="0.5"/>
    <line x1="500" y1="0" x2="500" y2="1000" stroke="#000000" stroke-width="0.5"/>
    
    <!-- Coordinate markers -->
    <g fill="#000000" font-family="Arial" font-size="8">
      <text x="100" y="510">1</text>
      <text x="200" y="510">2</text>
      <text x="300" y="510">3</text>
      <text x="400" y="510">4</text>
      <text x="600" y="510">6</text>
      <text x="700" y="510">7</text>
      <text x="800" y="510">8</text>
      <text x="900" y="510">9</text>
      
      <text x="505" y="100">A</text>
      <text x="505" y="200">B</text>
      <text x="505" y="300">C</text>
      <text x="505" y="400">D</text>
      <text x="505" y="600">F</text>
      <text x="505" y="700">G</text>
      <text x="505" y="800">H</text>
      <text x="505" y="900">I</text>
    </g>
  </g>
  
  <!-- Map legend box -->
  <rect x="800" y="800" width="150" height="100" fill="#fafafa" stroke="#000000" stroke-width="0.5" opacity="0.05"/>
  
  <!-- Map scale -->
  <g transform="translate(50, 900)" opacity="0.05">
    <line x1="0" y1="0" x2="200" y2="0" stroke="#000000" stroke-width="1"/>
    <line x1="0" y1="-5" x2="0" y2="5" stroke="#000000" stroke-width="1"/>
    <line x1="50" y1="-5" x2="50" y2="5" stroke="#000000" stroke-width="1"/>
    <line x1="100" y1="-5" x2="100" y2="5" stroke="#000000" stroke-width="1"/>
    <line x1="150" y1="-5" x2="150" y2="5" stroke="#000000" stroke-width="1"/>
    <line x1="200" y1="-5" x2="200" y2="5" stroke="#000000" stroke-width="1"/>
  </g>
</svg> 