<svg width="1000" height="1000" viewBox="0 0 1000 1000" xmlns="http://www.w3.org/2000/svg">
  <defs>
    <filter id="paper-texture" x="0%" y="0%" width="100%" height="100%">
      <feTurbulence type="fractalNoise" baseFrequency="0.04" numOctaves="5" result="noise"/>
      <feColorMatrix type="matrix" values="1 0 0 0 0
                                          0 1 0 0 0
                                          0 0 1 0 0
                                          0 0 0 0.3 0" result="noise-alpha"/>
      <feBlend in="SourceGraphic" in2="noise-alpha" mode="multiply" result="blend"/>
      <feColorMatrix in="blend" type="matrix" values="0.95 0 0 0 0.05
                                                    0 0.85 0 0 0.10
                                                    0 0 0.70 0 0.15
                                                    0 0 0 1 0" result="sepia"/>
    </filter>
  </defs>
  
  <rect width="100%" height="100%" fill="#f5f0e5" filter="url(#paper-texture)"/>
  
  <!-- Aging stains -->
  <ellipse cx="200" cy="300" rx="150" ry="100" fill="#d9b38c" opacity="0.1"/>
  <ellipse cx="800" cy="700" rx="200" ry="150" fill="#d9b38c" opacity="0.1"/>
  <ellipse cx="500" cy="200" rx="100" ry="70" fill="#d9b38c" opacity="0.1"/>
  
  <!-- Wrinkles and creases -->
  <path d="M0,200 C200,210 400,180 600,220 C800,240 900,190 1000,200" 
        stroke="#8B4513" stroke-width="1" opacity="0.1" fill="none"/>
  <path d="M0,600 C300,620 500,580 700,610 C800,590 900,620 1000,600" 
        stroke="#8B4513" stroke-width="1" opacity="0.1" fill="none"/>
  <path d="M300,0 C320,200 280,400 310,600 C290,800 320,900 300,1000" 
        stroke="#8B4513" stroke-width="1" opacity="0.1" fill="none"/>
  <path d="M700,0 C720,300 680,500 710,700 C690,800 720,900 700,1000" 
        stroke="#8B4513" stroke-width="1" opacity="0.1" fill="none"/>
</svg> 