<svg xmlns="http://www.w3.org/2000/svg" width="48" height="48" viewBox="0 0 48 48" fill="none">
  <g filter="url(#filter0_d_123_460)">
    <path d="M24 4C16.268 4 10 10.268 10 18C10 28.5 24 44 24 44C24 44 38 28.5 38 18C38 10.268 31.732 4 24 4Z" fill="#f59e0b"/>
    <path d="M24 4.5C16.544 4.5 10.5 10.544 10.5 18C10.5 23.0818 13.6727 29.7384 18.3344 36.0409C20.6689 39.1993 23.0783 41.7996 24 42.8704C24.9217 41.7996 27.3311 39.1993 29.6656 36.0409C34.3273 29.7384 37.5 23.0818 37.5 18C37.5 10.544 31.456 4.5 24 4.5Z" stroke="white"/>
    <!-- Bridge icon -->
    <path d="M16 16H32V18H16V16Z" fill="white"/>
    <path d="M16 23H32V25H16V23Z" fill="white"/>
    <path d="M17 18V23" stroke="white" stroke-width="1"/>
    <path d="M20 18V23" stroke="white" stroke-width="1"/>
    <path d="M23 18V23" stroke="white" stroke-width="1"/>
    <path d="M26 18V23" stroke="white" stroke-width="1"/>
    <path d="M29 18V23" stroke="white" stroke-width="1"/>
    <path d="M32 18V23" stroke="white" stroke-width="1"/>
    <line x1="16" y1="17" x2="32" y2="17" stroke="#f59e0b" stroke-width="0.5"/>
    <line x1="16" y1="24" x2="32" y2="24" stroke="#f59e0b" stroke-width="0.5"/>
  </g>
  <defs>
    <filter id="filter0_d_123_460" x="0" y="0" width="48" height="48" filterUnits="userSpaceOnUse" color-interpolation-filters="sRGB">
      <feFlood flood-opacity="0" result="BackgroundImageFix"/>
      <feColorMatrix in="SourceAlpha" type="matrix" values="0 0 0 0 0 0 0 0 0 0 0 0 0 0 0 0 0 0 127 0"/>
      <feOffset dy="4"/>
      <feGaussianBlur stdDeviation="2"/>
      <feColorMatrix type="matrix" values="0 0 0 0 0 0 0 0 0 0 0 0 0 0 0 0 0 0 0.25 0"/>
      <feBlend mode="normal" in2="BackgroundImageFix" result="effect1_dropShadow_123_460"/>
      <feBlend mode="normal" in="SourceGraphic" in2="effect1_dropShadow_123_460" result="shape"/>
    </filter>
  </defs>
</svg> 