<svg xmlns="http://www.w3.org/2000/svg" width="48" height="48" viewBox="0 0 48 48" fill="none">
  <g filter="url(#filter0_d_123_456)">
    <path d="M24 4C16.268 4 10 10.268 10 18C10 28.5 24 44 24 44C24 44 38 28.5 38 18C38 10.268 31.732 4 24 4Z" fill="#047857"/>
    <path d="M24 25C27.3137 25 30 22.3137 30 19C30 15.6863 27.3137 13 24 13C20.6863 13 18 15.6863 18 19C18 22.3137 20.6863 25 24 25Z" fill="white"/>
    <path d="M24 23C26.2091 23 28 21.2091 28 19C28 16.7909 26.2091 15 24 15C21.7909 15 20 16.7909 20 19C20 21.2091 21.7909 23 24 23Z" fill="#047857"/>
    <path d="M24 4.5C16.544 4.5 10.5 10.544 10.5 18C10.5 23.0818 13.6727 29.7384 18.3344 36.0409C20.6689 39.1993 23.0783 41.7996 24 42.8704C24.9217 41.7996 27.3311 39.1993 29.6656 36.0409C34.3273 29.7384 37.5 23.0818 37.5 18C37.5 10.544 31.456 4.5 24 4.5Z" stroke="white"/>
  </g>
  <defs>
    <filter id="filter0_d_123_456" x="0" y="0" width="48" height="48" filterUnits="userSpaceOnUse" color-interpolation-filters="sRGB">
      <feFlood flood-opacity="0" result="BackgroundImageFix"/>
      <feColorMatrix in="SourceAlpha" type="matrix" values="0 0 0 0 0 0 0 0 0 0 0 0 0 0 0 0 0 0 127 0"/>
      <feOffset dy="4"/>
      <feGaussianBlur stdDeviation="2"/>
      <feColorMatrix type="matrix" values="0 0 0 0 0 0 0 0 0 0 0 0 0 0 0 0 0 0 0.25 0"/>
      <feBlend mode="normal" in2="BackgroundImageFix" result="effect1_dropShadow_123_456"/>
      <feBlend mode="normal" in="SourceGraphic" in2="effect1_dropShadow_123_456" result="shape"/>
    </filter>
  </defs>
</svg> 