<svg xmlns="http://www.w3.org/2000/svg" width="48" height="48" viewBox="0 0 48 48" fill="none">
  <g filter="url(#filter0_d_123_458)">
    <path d="M24 4C16.268 4 10 10.268 10 18C10 28.5 24 44 24 44C24 44 38 28.5 38 18C38 10.268 31.732 4 24 4Z" fill="#0ea5e9"/>
    <path d="M24 4.5C16.544 4.5 10.5 10.544 10.5 18C10.5 23.0818 13.6727 29.7384 18.3344 36.0409C20.6689 39.1993 23.0783 41.7996 24 42.8704C24.9217 41.7996 27.3311 39.1993 29.6656 36.0409C34.3273 29.7384 37.5 23.0818 37.5 18C37.5 10.544 31.456 4.5 24 4.5Z" stroke="white"/>
    <!-- Lake icon -->
    <path d="M18 16.5C18 15.6716 18.6716 15 19.5 15H28.5C29.3284 15 30 15.6716 30 16.5V17.5C30 18.3284 29.3284 19 28.5 19H19.5C18.6716 19 18 18.3284 18 17.5V16.5Z" fill="white"/>
    <path d="M16 20C16 19.4477 16.4477 19 17 19H31C31.5523 19 32 19.4477 32 20V21C32 21.5523 31.5523 22 31 22H17C16.4477 22 16 21.5523 16 21V20Z" fill="white"/>
    <path d="M20 23C20 22.4477 20.4477 22 21 22H27C27.5523 22 28 22.4477 28 23V24C28 24.5523 27.5523 25 27 25H21C20.4477 25 20 24.5523 20 24V23Z" fill="white"/>
    <!-- Wave effect -->
    <path fill-rule="evenodd" clip-rule="evenodd" d="M18 17C18.5 16.5 19.5 16.5 20 17C20.5 17.5 21.5 17.5 22 17C22.5 16.5 23.5 16.5 24 17C24.5 17.5 25.5 17.5 26 17C26.5 16.5 27.5 16.5 28 17C28.5 17.5 29.5 17.5 30 17V16.5C30 15.6716 29.3284 15 28.5 15H19.5C18.6716 15 18 15.6716 18 16.5V17Z" fill="#0ea5e9"/>
    <path fill-rule="evenodd" clip-rule="evenodd" d="M16 20.5C16.5 20 17.5 20 18 20.5C18.5 21 19.5 21 20 20.5C20.5 20 21.5 20 22 20.5C22.5 21 23.5 21 24 20.5C24.5 20 25.5 20 26 20.5C26.5 21 27.5 21 28 20.5C28.5 20 29.5 20 30 20.5C30.5 21 31.5 21 32 20.5V20C32 19.4477 31.5523 19 31 19H17C16.4477 19 16 19.4477 16 20V20.5Z" fill="#0ea5e9"/>
  </g>
  <defs>
    <filter id="filter0_d_123_458" x="0" y="0" width="48" height="48" filterUnits="userSpaceOnUse" color-interpolation-filters="sRGB">
      <feFlood flood-opacity="0" result="BackgroundImageFix"/>
      <feColorMatrix in="SourceAlpha" type="matrix" values="0 0 0 0 0 0 0 0 0 0 0 0 0 0 0 0 0 0 127 0"/>
      <feOffset dy="4"/>
      <feGaussianBlur stdDeviation="2"/>
      <feColorMatrix type="matrix" values="0 0 0 0 0 0 0 0 0 0 0 0 0 0 0 0 0 0 0.25 0"/>
      <feBlend mode="normal" in2="BackgroundImageFix" result="effect1_dropShadow_123_458"/>
      <feBlend mode="normal" in="SourceGraphic" in2="effect1_dropShadow_123_458" result="shape"/>
    </filter>
  </defs>
</svg> 